<?xml version="1.0" standalone="no"?>
<!DOCTYPE svg PUBLIC "-//W3C//DTD SVG 20010904//EN"
 "http://www.w3.org/TR/2001/REC-SVG-20010904/DTD/svg10.dtd">
<svg version="1.0" xmlns="http://www.w3.org/2000/svg"
 width="481.000000pt" height="136.000000pt" viewBox="0 0 481.000000 136.000000"
 preserveAspectRatio="xMidYMid meet">

<g transform="translate(0.000000,136.000000) scale(0.100000,-0.100000)"
fill="#fff" stroke="none">
<path d="M2529 978 l0 -273 -21 54 c-24 62 -93 138 -155 170 -61 30 -159 45
-226 32 -108 -20 -213 -95 -259 -185 l-20 -40 -14 34 c-41 96 -141 171 -255
190 -166 28 -318 -53 -392 -210 -29 -61 -31 -72 -32 -185 0 -103 3 -129 24
-182 26 -70 84 -142 143 -179 95 -61 256 -69 359 -20 61 28 129 81 129 99 0 7
-26 41 -58 76 l-58 64 -45 -32 c-98 -70 -225 -46 -275 50 l-15 29 236 0 c227
0 235 -1 235 -20 0 -50 45 -136 99 -190 85 -84 133 -104 261 -104 95 -1 111 2
161 26 30 15 73 43 94 61 38 33 39 35 24 58 -9 13 -36 46 -60 73 l-45 49 -45
-32 c-98 -70 -225 -46 -275 50 l-15 29 251 0 250 0 0 -155 0 -155 105 0 105 0
0 41 0 41 39 -35 c88 -79 233 -75 336 11 52 43 104 121 125 189 27 88 27 227
0 314 -66 212 -294 310 -457 197 l-43 -29 0 181 0 180 -105 0 -105 0 -1 -272z
m-951 -228 c32 -20 72 -74 72 -97 0 -10 -35 -13 -140 -13 -105 0 -140 3 -140
13 0 29 43 79 83 97 54 25 84 25 125 0z m669 0 c33 -20 56 -50 68 -87 l6 -23
-140 0 c-98 0 -141 3 -141 11 0 28 46 83 84 100 53 24 83 24 123 -1z m687 6
c75 -31 126 -141 112 -238 -10 -64 -52 -124 -104 -150 -38 -18 -49 -19 -82 -9
-21 6 -52 27 -69 46 -86 98 -56 296 52 346 51 22 50 22 91 5z"/>
<path d="M3553 960 c-73 -15 -132 -47 -182 -99 -67 -69 -88 -129 -97 -275 l-7
-116 257 -2 257 -3 -23 -34 c-41 -60 -71 -76 -148 -76 -62 0 -73 3 -116 34
l-48 34 -44 -49 c-24 -27 -51 -60 -60 -73 -16 -23 -15 -25 23 -58 21 -18 64
-46 94 -61 50 -24 67 -27 161 -26 96 0 110 2 163 29 75 37 149 117 177 193 28
72 38 217 20 293 -29 121 -99 211 -204 260 -68 31 -157 43 -223 29z m134 -210
c40 -18 83 -68 83 -97 0 -10 -35 -13 -141 -13 l-140 0 6 23 c12 37 35 67 68
87 40 25 70 25 124 0z"/>
<path d="M4310 961 c-14 -3 -45 -19 -70 -35 -24 -16 -64 -38 -87 -48 -36 -16
-80 -60 -107 -105 -12 -21 32 0 186 88 195 112 192 109 143 108 -22 -1 -51 -4
-65 -8z"/>
<path d="M83 923 c3 -16 16 -64 30 -108 44 -142 98 -316 150 -488 l51 -168
109 3 110 3 22 75 c65 217 87 286 94 293 4 4 22 -41 40 -100 18 -60 44 -145
58 -190 l25 -83 109 0 108 0 35 113 c31 101 189 616 202 660 5 16 -3 17 -107
15 l-112 -3 -60 -207 c-34 -115 -63 -208 -67 -208 -3 0 -32 95 -65 210 l-60
210 -105 -2 -104 -3 -62 -215 -61 -215 -20 65 c-11 36 -39 134 -63 218 l-44
152 -109 0 -109 0 5 -27z"/>
<path d="M4479 936 c-22 -21 -442 -259 -456 -259 -7 0 -13 -8 -13 -18 0 -9 -3
-24 -6 -33 -3 -9 -2 -16 4 -16 8 0 530 294 540 305 2 2 -9 10 -25 19 -25 12
-32 13 -44 2z"/>
<path d="M4588 737 c-70 -41 -88 -56 -88 -74 0 -20 -5 -23 -39 -23 -31 0 -79
-23 -239 -112 -174 -98 -200 -116 -195 -133 8 -30 12 -31 46 -11 18 10 61 34
97 52 36 19 71 39 77 44 7 6 112 67 233 136 121 69 220 129 220 133 0 4 -6 14
-12 23 -12 13 -23 9 -100 -35z"/>
<path d="M4551 586 c-90 -52 -168 -99 -174 -105 -8 -8 3 -11 40 -11 29 0 54 4
57 9 3 5 60 39 126 77 109 61 120 70 120 96 0 15 -1 28 -2 28 -2 0 -77 -43
-167 -94z"/>
<path d="M4519 403 c-20 -23 -89 -53 -125 -53 -19 0 -71 -23 -138 -62 -107
-61 -108 -62 -87 -79 21 -17 25 -15 162 64 77 45 160 92 185 104 24 13 44 27
44 33 0 16 -26 12 -41 -7z"/>
<path d="M4451 270 c-84 -49 -158 -93 -163 -98 -7 -7 0 -13 24 -17 28 -5 45 0
98 32 36 22 100 59 142 84 78 44 89 57 66 77 -10 7 -55 -14 -167 -78z"/>
</g>
</svg>
